<?xml version="1.0" encoding="UTF-8"?>
<!DOCTYPE svg PUBLIC "-//W3C//DTD SVG 1.1//EN" "http://www.w3.org/Graphics/SVG/1.1/DTD/svg11.dtd">
<svg xmlns="http://www.w3.org/2000/svg" version="1.1" width="121px" height="136px" style="shape-rendering:geometricPrecision; text-rendering:geometricPrecision; image-rendering:optimizeQuality; fill-rule:evenodd; clip-rule:evenodd" xmlns:xlink="http://www.w3.org/1999/xlink">
<g><path style="opacity:1" fill="#bd0101" d="M 81.5,11.5 C 80.3804,13.5748 79.3804,15.7415 78.5,18C 62.842,17.6464 47.1753,17.6464 31.5,18C 28.4213,18.9728 25.4213,19.8061 22.5,20.5C 21.5,20.5 20.5,20.5 19.5,20.5C 19.6644,17.3262 20.6644,14.4929 22.5,12C 42.1638,11.5 61.8305,11.3334 81.5,11.5 Z"/></g>
<g><path style="opacity:1" fill="#bc0705" d="M 81.5,11.5 C 84.2108,11.1849 86.5441,11.8516 88.5,13.5C 92.005,19.8474 96.005,25.8474 100.5,31.5C 102.326,33.1475 103.66,35.1475 104.5,37.5C 105.389,43.5257 103.389,48.1924 98.5,51.5C 98.4207,50.0416 97.9207,48.7083 97,47.5C 96.1739,49.4054 95.0072,49.7388 93.5,48.5C 94.6405,47.5745 94.6405,46.7412 93.5,46C 94.3247,44.3117 95.3247,44.1451 96.5,45.5C 97.641,43.5787 97.8077,41.5787 97,39.5C 95.2894,40.5814 93.7894,40.248 92.5,38.5C 89.7368,35.3525 87.9034,31.6858 87,27.5C 85.483,25.7605 83.983,24.0938 82.5,22.5C 82.1667,22.5 81.8333,22.5 81.5,22.5C 62.1951,20.5122 42.5284,19.8455 22.5,20.5C 25.4213,19.8061 28.4213,18.9728 31.5,18C 47.1753,17.6464 62.842,17.6464 78.5,18C 79.3804,15.7415 80.3804,13.5748 81.5,11.5 Z"/></g>
<g><path style="opacity:0.831" fill="#c24141" d="M 88.5,10.5 C 93.2552,17.0035 97.2552,24.0035 100.5,31.5C 96.005,25.8474 92.005,19.8474 88.5,13.5C 88.5,12.5 88.5,11.5 88.5,10.5 Z"/></g>
<g><path style="opacity:0.698" fill="#c22a28" d="M 88.5,10.5 C 88.5,11.5 88.5,12.5 88.5,13.5C 86.5441,11.8516 84.2108,11.1849 81.5,11.5C 61.8305,11.3334 42.1638,11.5 22.5,12C 20.6644,14.4929 19.6644,17.3262 19.5,20.5C 20.5,20.5 21.5,20.5 22.5,20.5C 42.5284,19.8455 62.1951,20.5122 81.5,22.5C 60.1667,22.5 38.8333,22.5 17.5,22.5C 17.6906,19.0173 18.3573,15.6839 19.5,12.5C 19.5774,11.2502 20.244,10.4169 21.5,10C 44.0038,9.17041 66.3371,9.33708 88.5,10.5 Z"/></g>
<g><path style="opacity:0.173" fill="#a83432" d="M 19.5,12.5 C 18.3573,15.6839 17.6906,19.0173 17.5,22.5C 38.8333,22.5 60.1667,22.5 81.5,22.5C 81.8333,22.5 82.1667,22.5 82.5,22.5C 83.1667,24.5 83.8333,26.5 84.5,28.5C 83.0665,27.1667 81.7332,25.6667 80.5,24C 58.5025,23.5 36.5025,23.3334 14.5,23.5C 14.7955,19.2062 16.4622,15.5395 19.5,12.5 Z"/></g>
<g><path style="opacity:0.89" fill="#bf2a27" d="M 68.5,56.5 C 69.1495,54.5648 69.4828,52.5648 69.5,50.5C 71.7769,48.126 73.4435,45.2927 74.5,42C 74.0969,40.5272 73.4303,39.1939 72.5,38C 50.1692,37.5 27.8358,37.3334 5.5,37.5C 5.5,38.5 5.5,39.5 5.5,40.5C 4.83333,40.5 4.16667,40.5 3.5,40.5C 3.62435,38.4184 4.62435,36.9184 6.5,36C 28.8333,35.3333 51.1667,35.3333 73.5,36C 76.3492,38.5594 77.1825,41.7261 76,45.5C 73.9715,49.5796 71.4715,53.2463 68.5,56.5 Z"/></g>
<g><path style="opacity:1" fill="#bd0101" d="M 69.5,50.5 C 68.7321,51.2625 68.2321,52.2625 68,53.5C 67.6667,53.1667 67.3333,52.8333 67,52.5C 66.5065,54.1341 66.3398,55.8008 66.5,57.5C 64.8561,57.7135 63.3561,57.3802 62,56.5C 61.7954,54.4175 61.9621,52.2509 62.5,50C 60.8934,48.951 60.2267,47.451 60.5,45.5C 41.8333,45.5 23.1667,45.5 4.5,45.5C 4.36596,43.7085 4.69929,42.0418 5.5,40.5C 5.5,39.5 5.5,38.5 5.5,37.5C 27.8358,37.3334 50.1692,37.5 72.5,38C 73.4303,39.1939 74.0969,40.5272 74.5,42C 73.4435,45.2927 71.7769,48.126 69.5,50.5 Z"/></g>
<g><path style="opacity:0.349" fill="#c2423e" d="M 82.5,22.5 C 83.983,24.0938 85.483,25.7605 87,27.5C 87.9034,31.6858 89.7368,35.3525 92.5,38.5C 90.37,47.28 86.87,55.6134 82,63.5C 81.1841,64.8228 80.0174,65.4894 78.5,65.5C 82.6964,57.6087 87.0297,49.7754 91.5,42C 87.9722,38.1108 85.6389,33.6108 84.5,28.5C 83.8333,26.5 83.1667,24.5 82.5,22.5 Z"/></g>
<g><path style="opacity:1" fill="#c5342f" d="M 3.5,40.5 C 3.16667,42.5 2.83333,44.5 2.5,46.5C 21.1696,46.3334 39.8363,46.5001 58.5,47C 59.0219,47.5613 59.3552,48.228 59.5,49C 58.1439,50.5671 57.4772,52.4004 57.5,54.5C 54.4038,58.6495 52.0705,63.3162 50.5,68.5C 49.0413,68.4326 47.7079,68.7659 46.5,69.5C 49.8544,62.7912 53.1877,56.1246 56.5,49.5C 37.5,49.5 18.5,49.5 -0.5,49.5C -0.5,48.1667 -0.5,46.8333 -0.5,45.5C 0.833333,43.8333 2.16667,42.1667 3.5,40.5 Z"/></g>
<g><path style="opacity:1" fill="#be0e0a" d="M 92.5,38.5 C 93.7894,40.248 95.2894,40.5814 97,39.5C 97.8077,41.5787 97.641,43.5787 96.5,45.5C 95.3247,44.1451 94.3247,44.3117 93.5,46C 94.6405,46.7412 94.6405,47.5745 93.5,48.5C 95.0072,49.7388 96.1739,49.4054 97,47.5C 97.9207,48.7083 98.4207,50.0416 98.5,51.5C 97.2564,54.7273 96.0897,58.0606 95,61.5C 91.2019,65.0959 89.0353,69.4293 88.5,74.5C 88.6716,75.4916 88.3382,76.1583 87.5,76.5C 83.1667,76.5 78.8333,76.5 74.5,76.5C 75.4861,73.507 76.4861,70.507 77.5,67.5C 77.3284,66.5084 77.6618,65.8417 78.5,65.5C 80.0174,65.4894 81.1841,64.8228 82,63.5C 86.87,55.6134 90.37,47.28 92.5,38.5 Z"/></g>
<g><path style="opacity:1" fill="#be1612" d="M 3.5,40.5 C 4.16667,40.5 4.83333,40.5 5.5,40.5C 4.69929,42.0418 4.36596,43.7085 4.5,45.5C 23.1667,45.5 41.8333,45.5 60.5,45.5C 60.2267,47.451 60.8934,48.951 62.5,50C 61.9621,52.2509 61.7954,54.4175 62,56.5C 63.3561,57.3802 64.8561,57.7135 66.5,57.5C 66.3398,55.8008 66.5065,54.1341 67,52.5C 67.3333,52.8333 67.6667,53.1667 68,53.5C 68.2321,52.2625 68.7321,51.2625 69.5,50.5C 69.4828,52.5648 69.1495,54.5648 68.5,56.5C 68.2447,59.0163 67.4114,61.3496 66,63.5C 62.3655,68.2955 59.1988,73.2955 56.5,78.5C 57.5109,72.134 59.5109,66.134 62.5,60.5C 60.9223,59.7022 59.2556,59.2022 57.5,59C 58.8009,57.3845 58.8009,55.8845 57.5,54.5C 57.4772,52.4004 58.1439,50.5671 59.5,49C 59.3552,48.228 59.0219,47.5613 58.5,47C 39.8363,46.5001 21.1696,46.3334 2.5,46.5C 2.83333,44.5 3.16667,42.5 3.5,40.5 Z"/></g>
<g><path style="opacity:0.4" fill="#c26b65" d="M 35.5,63.5 C 35.5,62.1667 35.5,60.8333 35.5,59.5C 31.2984,59.1832 27.2984,59.5166 23.5,60.5C 22.1667,61.8333 20.8333,63.1667 19.5,64.5C 20.6109,59.09 23.9442,57.09 29.5,58.5C 31.8333,58.6667 34.1667,58.8333 36.5,59C 36.8333,59.3333 37.1667,59.6667 37.5,60C 36.9152,61.3024 36.2485,62.469 35.5,63.5 Z"/></g>
<g><path style="opacity:0.557" fill="#bc2d2b" d="M 104.5,37.5 C 106.385,39.7954 106.885,42.462 106,45.5C 100.303,55.3376 94.4701,65.0042 88.5,74.5C 89.0353,69.4293 91.2019,65.0959 95,61.5C 96.0897,58.0606 97.2564,54.7273 98.5,51.5C 103.389,48.1924 105.389,43.5257 104.5,37.5 Z"/></g>
<g><path style="opacity:0.467" fill="#c86361" d="M 19.5,64.5 C 19.2964,66.6854 18.6298,68.6854 17.5,70.5C 16.5275,72.1392 15.1942,73.4726 13.5,74.5C 15.0002,70.827 17.0002,67.4937 19.5,64.5 Z"/></g>
<g><path style="opacity:0.42" fill="#a6332d" d="M 77.5,67.5 C 76.4861,70.507 75.4861,73.507 74.5,76.5C 78.8333,76.5 83.1667,76.5 87.5,76.5C 87.3893,77.1174 87.056,77.6174 86.5,78C 82.5,78.6667 78.5,78.6667 74.5,78C 73.4258,77.2613 72.7591,76.2613 72.5,75C 73.6227,72.061 75.2893,69.561 77.5,67.5 Z"/></g>
<g><path style="opacity:0.91" fill="#c53534" d="M 17.5,70.5 C 17.6495,71.552 17.4828,72.552 17,73.5C 15.5736,75.7658 13.7402,77.4324 11.5,78.5C 11.6596,76.847 12.3263,75.5137 13.5,74.5C 15.1942,73.4726 16.5275,72.1392 17.5,70.5 Z"/></g>
<g><path style="opacity:0.718" fill="#ca4945" d="M 23.5,60.5 C 27.2984,59.5166 31.2984,59.1832 35.5,59.5C 35.5,60.8333 35.5,62.1667 35.5,63.5C 31.6673,71.171 27.334,78.5043 22.5,85.5C 23.0888,80.0846 25.2554,75.4179 29,71.5C 31.0719,68.0288 32.5719,64.3621 33.5,60.5C 30.1667,60.5 26.8333,60.5 23.5,60.5 Z"/></g>
<g><path style="opacity:0.969" fill="#cc413f" d="M 11.5,78.5 C 11.5144,83.1519 9.51445,86.4852 5.5,88.5C 6.57871,84.5753 8.57871,81.242 11.5,78.5 Z"/></g>
<g><path style="opacity:1" fill="#c4302a" d="M 46.5,70.5 C 46.6567,71.8734 46.49,73.2068 46,74.5C 43,79.5 40,84.5 37,89.5C 35.872,91.3453 35.372,93.3453 35.5,95.5C 34.5489,94.0813 34.2155,92.4147 34.5,90.5C 37.3013,84.8974 40.1346,79.2308 43,73.5C 44.0391,72.2899 45.2058,71.2899 46.5,70.5 Z"/></g>
<g><path style="opacity:0.281" fill="#a93835" d="M 52.5,85.5 C 71.1402,87.3235 90.1402,88.1569 109.5,88C 110.517,89.0495 110.684,90.2161 110,91.5C 108.595,92.7305 107.429,94.0639 106.5,95.5C 106.884,93.0706 107.551,90.7373 108.5,88.5C 89.5,88.5 70.5,88.5 51.5,88.5C 51.2627,87.209 51.596,86.209 52.5,85.5 Z"/></g>
<g><path style="opacity:1" fill="#bd0303" d="M 57.5,54.5 C 58.8009,55.8845 58.8009,57.3845 57.5,59C 59.2556,59.2022 60.9223,59.7022 62.5,60.5C 59.5109,66.134 57.5109,72.134 56.5,78.5C 55.4161,81.0041 54.0828,83.3374 52.5,85.5C 51.596,86.209 51.2627,87.209 51.5,88.5C 69.3256,89.4968 87.3256,89.8301 105.5,89.5C 106.125,92.9705 105.125,95.8038 102.5,98C 81.1667,98.6667 59.8333,98.6667 38.5,98C 37.4734,97.4867 36.4734,96.9867 35.5,96.5C 35.5,96.1667 35.5,95.8333 35.5,95.5C 35.372,93.3453 35.872,91.3453 37,89.5C 40,84.5 43,79.5 46,74.5C 46.49,73.2068 46.6567,71.8734 46.5,70.5C 46.5,70.1667 46.5,69.8333 46.5,69.5C 47.7079,68.7659 49.0413,68.4326 50.5,68.5C 52.0705,63.3162 54.4038,58.6495 57.5,54.5 Z"/></g>
<g><path style="opacity:0.855" fill="#b63030" d="M 5.5,88.5 C 4.73688,91.1411 4.57022,93.8078 5,96.5C 7.36999,99.608 9.36999,102.941 11,106.5C 11.7401,107.749 11.5735,108.749 10.5,109.5C 7.45585,104.58 4.78918,99.413 2.5,94C 3.14024,91.8796 4.14024,90.0463 5.5,88.5 Z"/></g>
<g><path style="opacity:0.467" fill="#b63532" d="M 22.5,85.5 C 22.4312,88.0842 21.2645,90.0842 19,91.5C 18.3333,93.1667 18.3333,94.8333 19,96.5C 22.3658,101.703 25.5324,107.036 28.5,112.5C 50.6629,113.167 72.6629,113.833 94.5,114.5C 71.425,114.822 48.425,114.489 25.5,113.5C 22.0773,107.176 18.744,100.676 15.5,94C 16.6982,90.1983 19.0315,87.365 22.5,85.5 Z"/></g>
<g><path style="opacity:1" fill="#c7302c" d="M 51.5,88.5 C 70.5,88.5 89.5,88.5 108.5,88.5C 107.551,90.7373 106.884,93.0706 106.5,95.5C 105.785,97.7547 104.452,99.5881 102.5,101C 97.3158,101.816 92.3158,101.65 87.5,100.5C 70.6716,99.6684 53.6716,99.1684 36.5,99C 35.7476,98.3292 35.4142,97.4959 35.5,96.5C 36.4734,96.9867 37.4734,97.4867 38.5,98C 59.8333,98.6667 81.1667,98.6667 102.5,98C 105.125,95.8038 106.125,92.9705 105.5,89.5C 87.3256,89.8301 69.3256,89.4968 51.5,88.5 Z"/></g>
<g><path style="opacity:0.616" fill="#a83232" d="M 34.5,90.5 C 34.2155,92.4147 34.5489,94.0813 35.5,95.5C 35.5,95.8333 35.5,96.1667 35.5,96.5C 35.4142,97.4959 35.7476,98.3292 36.5,99C 53.6716,99.1684 70.6716,99.6684 87.5,100.5C 71.6311,100.189 55.7978,100.523 40,101.5C 35.4766,100.818 32.9766,98.1516 32.5,93.5C 32.4534,91.9623 33.1201,90.9623 34.5,90.5 Z"/></g>
<g><path style="opacity:1" fill="#be0807" d="M 23.5,60.5 C 26.8333,60.5 30.1667,60.5 33.5,60.5C 32.5719,64.3621 31.0719,68.0288 29,71.5C 25.2554,75.4179 23.0888,80.0846 22.5,85.5C 19.0315,87.365 16.6982,90.1983 15.5,94C 18.744,100.676 22.0773,107.176 25.5,113.5C 29.0293,115.423 33.0293,116.089 37.5,115.5C 34.1027,116.198 30.6027,116.865 27,117.5C 26.6667,117.167 26.3333,116.833 26,116.5C 25.5503,118.519 24.717,120.352 23.5,122C 24.1667,122.333 24.8333,122.667 25.5,123C 45.0043,123.168 64.3377,123.668 83.5,124.5C 63.1639,124.667 42.8306,124.5 22.5,124C 20.8863,121.873 18.8863,120.373 16.5,119.5C 16.9098,115.265 15.2431,112.265 11.5,110.5C 10.8333,110.5 10.5,110.167 10.5,109.5C 11.5735,108.749 11.7401,107.749 11,106.5C 9.36999,102.941 7.36999,99.608 5,96.5C 4.57022,93.8078 4.73688,91.1411 5.5,88.5C 9.51445,86.4852 11.5144,83.1519 11.5,78.5C 13.7402,77.4324 15.5736,75.7658 17,73.5C 17.4828,72.552 17.6495,71.552 17.5,70.5C 18.6298,68.6854 19.2964,66.6854 19.5,64.5C 20.8333,63.1667 22.1667,61.8333 23.5,60.5 Z"/></g>
<g><path style="opacity:0.651" fill="#b93531" d="M 11.5,110.5 C 15.2431,112.265 16.9098,115.265 16.5,119.5C 14.5954,116.696 12.9287,113.696 11.5,110.5 Z"/></g>
<g><path style="opacity:1" fill="#bd0101" d="M 37.5,115.5 C 55.8454,115.167 74.1788,115.5 92.5,116.5C 91.8632,118.303 90.6965,119.636 89,120.5C 88.5172,121.448 88.3505,122.448 88.5,123.5C 86.7839,123.629 85.1172,123.962 83.5,124.5C 64.3377,123.668 45.0043,123.168 25.5,123C 24.8333,122.667 24.1667,122.333 23.5,122C 24.717,120.352 25.5503,118.519 26,116.5C 26.3333,116.833 26.6667,117.167 27,117.5C 30.6027,116.865 34.1027,116.198 37.5,115.5 Z"/></g>
<g><path style="opacity:0.984" fill="#c72b2a" d="M 25.5,113.5 C 48.425,114.489 71.425,114.822 94.5,114.5C 95.0431,114.56 95.3764,114.893 95.5,115.5C 93.4887,118.861 91.4887,122.194 89.5,125.5C 66.5,125.5 43.5,125.5 20.5,125.5C 18.684,123.882 17.3507,121.882 16.5,119.5C 18.8863,120.373 20.8863,121.873 22.5,124C 42.8306,124.5 63.1639,124.667 83.5,124.5C 85.1172,123.962 86.7839,123.629 88.5,123.5C 88.3505,122.448 88.5172,121.448 89,120.5C 90.6965,119.636 91.8632,118.303 92.5,116.5C 74.1788,115.5 55.8454,115.167 37.5,115.5C 33.0293,116.089 29.0293,115.423 25.5,113.5 Z"/></g>
<g><path style="opacity:0.501" fill="#9c2a28" d="M 20.5,125.5 C 43.5,125.5 66.5,125.5 89.5,125.5C 88.1225,126.234 86.6225,126.901 85,127.5C 63.4022,126.839 41.9022,126.172 20.5,125.5 Z"/></g>
</svg>
